<svg xmlns="http://www.w3.org/2000/svg" width="177.473" height="55" viewBox="0 0 177.473 55"><path fill="#fff" d="M4.512 17.685v-.04c0-3.948 3.02-7.046 7.125-7.046 2.768 0 4.55 1.162 5.75 2.806l-2.827 2.187c-.773-.948-1.665-1.587-2.962-1.587-1.896 0-3.23 1.626-3.23 3.6v.04c0 2.032 1.334 3.62 3.23 3.62 1.414 0 2.246-.658 3.06-1.645l2.826 2.014c-1.28 1.762-3 3.058-5.98 3.058-3.875 0-6.992-2.96-6.992-7.007zm18.78-6.91h3.623l5.77 13.647H28.66l-.972-2.44h-5.244l-.97 2.44h-3.93l5.75-13.647zm3.293 8.284l-1.51-3.835-1.53 3.833h3.04zm7.03-8.188h3.503l5.576 7.162v-7.162h3.716v13.55h-3.27l-5.81-7.433v7.432h-3.715v-13.55zm18.125 3.29h-4.05v-3.29H59.56v3.29h-4.063v10.26H51.74v-10.26zm9.18-3.29h3.754v13.55H60.92v-13.55zm5.848 0h10.898v3.175H70.48v2.07h6.508v2.962H70.48v2.146h7.28v3.195H66.766V10.87l.002.002zm12.546 0h6.408c2.072 0 3.502.543 4.413 1.452.793.792 1.2 1.82 1.2 3.155v.037c0 2.09-1.104 3.466-2.788 4.18l3.232 4.725h-4.317l-2.73-4.104H83.07v4.103h-3.756V10.873zm6.254 6.503c1.258 0 2.015-.618 2.015-1.607v-.037c0-1.083-.794-1.625-2.035-1.625H83.07v3.27h2.498zm7.282-6.503h10.898v3.175h-7.184v2.07h6.506v2.962h-6.505v2.146h7.278v3.195H92.85V10.873zM4.426 39.204v-.038c0-3.948 3.02-7.047 7.125-7.047 2.77 0 4.55 1.162 5.75 2.807l-2.825 2.187c-.774-.947-1.666-1.588-2.96-1.588-1.9 0-3.233 1.627-3.233 3.6v.04c0 2.034 1.335 3.62 3.232 3.62 1.412 0 2.245-.656 3.058-1.643l2.827 2.012c-1.278 1.762-3 3.06-5.98 3.06-3.875-.002-6.99-2.963-6.99-7.01h-.004zm14.212-6.81h6.41c2.07 0 3.5.54 4.412 1.45.794.793 1.2 1.818 1.2 3.156v.038c0 2.09-1.104 3.465-2.787 4.18l3.23 4.726H26.79l-2.73-4.104h-1.665v4.103H18.64v-13.55h-.002zm6.255 6.502c1.257 0 2.015-.62 2.015-1.607v-.04c0-1.084-.795-1.626-2.035-1.626h-2.478v3.27h2.498v.002zm7.282-6.503H43.07v3.174H35.89v2.07h6.506V40.6h-6.507v2.148h7.28v3.193H32.172V32.394h.003zm17.23-.098h3.62l5.77 13.646h-4.023l-.97-2.438h-5.246l-.967 2.44h-3.93l5.75-13.647h-.004zM52.7 40.58l-1.51-3.835-1.53 3.833h3.04zm8.598-4.896H57.25v-3.29h11.863v3.29H65.05v10.26h-3.753v-10.26zm9.178-3.29h3.758V45.94h-3.758v-13.55zm4.783 0h4.182l3.077 8.574 3.098-8.575h4.104l-5.5 13.645h-3.486l-5.48-13.646h.003zm14.08 6.81v-.038c0-3.893 3.133-7.047 7.313-7.047 4.187 0 7.28 3.114 7.28 7.006v.04c0 3.89-3.135 7.046-7.315 7.046-4.182 0-7.278-3.117-7.278-7.01v.002zm10.742 0v-.038c0-1.975-1.396-3.658-3.468-3.658-2.07 0-3.445 1.665-3.445 3.62v.038c0 1.955 1.414 3.66 3.482 3.66 2.055 0 3.43-1.665 3.43-3.622z"/></svg>